<?xml version="1.0" standalone="no"?><!DOCTYPE svg PUBLIC "-//W3C//DTD SVG 1.1//EN" "http://www.w3.org/Graphics/SVG/1.1/DTD/svg11.dtd"><svg t="1586009022103" class="icon" viewBox="0 0 1024 1024" version="1.1" xmlns="http://www.w3.org/2000/svg" p-id="7753" width="24" height="24" xmlns:xlink="http://www.w3.org/1999/xlink"><defs><style type="text/css"></style></defs><path d="M89.472 224.502c0 0 75.008-159.424 201.792 0 126.528 159.616 0 206.4 0 206.4s-84.352 79.808-18.816 131.456c65.664 51.456 225.28 192.256 225.28 192.256s63.232 84.288 131.2 23.36c84.48-70.144 117.312-81.984 182.912-32.768 114.496 85.376 150.272 171.264-23.232 239.232-192.384 93.824-534.784-229.888-534.784-229.888s-337.856-323.648-164.352-530.048zM525.76 306.997c0 0-63.232 6.72-51.712-59.2 5.312-29.952 56.32-39.808 103.232-25.536 47.168 14.016 222.912 91.392 230.016 288.512 0 0-12.992 55.296-54.208 44.352-44.288-11.776-32.64-95.616-35.136-111.936-2.24-16.384-63.104-143.168-192.192-136.192zM647.616 135.797c0 0-77.376 8.064-63.104-72.256 6.336-36.864 68.928-48.896 126.528-31.68 57.408 17.28 272.704 112 281.216 353.152 0 0-18.432 75.264-65.792 54.72-41.408-18.24-43.52-120-46.272-140.096-3.136-20.096-74.304-172.48-232.576-163.84z" p-id="7754" fill="#666666"></path></svg>