<?xml version="1.0" standalone="no"?><!DOCTYPE svg PUBLIC "-//W3C//DTD SVG 1.1//EN" "http://www.w3.org/Graphics/SVG/1.1/DTD/svg11.dtd"><svg t="1586006629672" class="icon" viewBox="0 0 1024 1024" version="1.1" xmlns="http://www.w3.org/2000/svg" p-id="2946" xmlns:xlink="http://www.w3.org/1999/xlink" width="26" height="26"><defs><style type="text/css"></style></defs><path d="M510.923474 1022.107049a43.299457 43.299457 0 0 1-32.382474-14.536711c-36.825852-41.38483-359.761913-410.16355-359.761913-613.424624C118.779087 177.90853 294.700741 1.986876 510.930699 1.986876c216.237183 0 392.158837 175.921654 392.158837 392.158838 0 203.261074-322.950512 572.039794-359.776363 613.424624a43.350032 43.350032 0 0 1-32.389699 14.536711z m0-933.420109c-168.429323 0-305.451549 137.02945-305.451549 305.458774 0 130.006745 197.416045 390.504311 305.444324 518.358004 108.035504-127.882594 305.465999-388.459635 305.465999-518.358004 0-168.429323-137.02945-305.458774-305.458774-305.458774z" fill="#ffffff" p-id="2947"></path><path d="M510.923474 564.887039c-86.757864 0-157.346165-70.588302-157.346165-157.353391 0-86.757864 70.588302-157.33894 157.346165-157.33894 86.765089 0 157.35339 70.581077 157.35339 157.33894 0 86.765089-70.581077 157.35339-157.35339 157.353391z m0-227.992267c-38.957229 0-70.646102 31.688873-70.646102 70.638876 0 38.957229 31.688873 70.653327 70.646102 70.653327s70.653327-31.696098 70.653327-70.653327c0-38.950004-31.696098-70.638877-70.653327-70.638876z" fill="#ffffff" p-id="2948"></path></svg>