<?xml version="1.0" standalone="no"?><!DOCTYPE svg PUBLIC "-//W3C//DTD SVG 1.1//EN" "http://www.w3.org/Graphics/SVG/1.1/DTD/svg11.dtd"><svg t="1586006560109" class="icon" viewBox="0 0 1024 1024" version="1.1" xmlns="http://www.w3.org/2000/svg" p-id="2096" xmlns:xlink="http://www.w3.org/1999/xlink" width="26" height="26"><defs><style type="text/css"></style></defs><path d="M832 874.666667H192c-70.4 0-128-57.6-128-128V277.333333c0-70.4 57.6-128 128-128h640c70.4 0 128 57.6 128 128v469.333334c0 70.4-57.6 128-128 128zM192 234.666667c-23.466667 0-42.666667 19.2-42.666667 42.666666v469.333334c0 23.466667 19.2 42.666667 42.666667 42.666666h640c23.466667 0 42.666667-19.2 42.666667-42.666666V277.333333c0-23.466667-19.2-42.666667-42.666667-42.666666H192z" p-id="2097" fill="#ffffff"></path><path d="M512 576c-8.533333 0-17.066667-2.133333-23.466667-6.4l-384-256c-19.2-12.8-25.6-40.533333-12.8-59.733333 12.8-19.2 40.533333-25.6 59.733334-12.8L512 482.133333l360.533333-241.066666c19.2-12.8 46.933333-8.533333 59.733334 12.8s8.533333 46.933333-12.8 59.733333l-384 256c-6.4 4.266667-14.933333 6.4-23.466667 6.4z" p-id="2098" fill="#ffffff"></path></svg>