<?xml version="1.0" standalone="no"?><!DOCTYPE svg PUBLIC "-//W3C//DTD SVG 1.1//EN" "http://www.w3.org/Graphics/SVG/1.1/DTD/svg11.dtd"><svg t="1585974311573" class="icon" viewBox="0 0 1024 1024" version="1.1" xmlns="http://www.w3.org/2000/svg" p-id="2633" width="32" height="32" xmlns:xlink="http://www.w3.org/1999/xlink"><defs><style type="text/css"></style></defs><path d="M450.23 831.7c-164.87 0-316.85-108.51-366.94-269.68-30.4-97.82-20.9-201.62 26.76-292.29s127.79-157.35 225.6-187.75c97.83-30.42 201.61-20.9 292.29 26.76 90.67 47.67 157.35 127.79 187.75 225.61 35.78 115.12 16.24 237.58-53.6 335.99a383.494 383.494 0 0 1-43 50.66c-15.04 14.89-39.34 14.78-54.23-0.29-14.9-15.05-14.77-39.34 0.29-54.23a307.844 307.844 0 0 0 34.39-40.52c55.9-78.76 71.54-176.75 42.92-268.84-50.21-161.54-222.49-252.1-384.03-201.9-78.26 24.32-142.35 77.67-180.48 150.2-38.14 72.53-45.74 155.57-21.42 233.83 44.58 143.44 190.03 234.7 338.26 212.42 20.98-3.14 40.48 11.26 43.64 32.2 3.16 20.95-11.26 40.48-32.2 43.64a377.753 377.753 0 0 1-56 4.19z" p-id="2634" fill="#06c1ae"></path><path d="M919.84 959.5c-9.81 0-19.63-3.74-27.11-11.24L666.75 722.29c-14.98-14.97-14.98-39.25 0-54.23 14.97-14.98 39.26-14.98 54.23 0l225.97 225.97c14.98 14.97 14.98 39.25 0 54.23-7.48 7.5-17.3 11.24-27.11 11.24z" p-id="2635" fill="#06c1ae"></path></svg>