<?xml version="1.0" standalone="no"?><!DOCTYPE svg PUBLIC "-//W3C//DTD SVG 1.1//EN" "http://www.w3.org/Graphics/SVG/1.1/DTD/svg11.dtd"><svg t="1586008376928" class="icon" viewBox="0 0 1024 1024" version="1.1" xmlns="http://www.w3.org/2000/svg" p-id="6256" xmlns:xlink="http://www.w3.org/1999/xlink" width="24" height="24"><defs><style type="text/css"></style></defs><path d="M977.92 543.744l0 265.216q0 139.264-185.344 139.264l-583.68 0q-45.056 0-76.288-11.264t-51.2-31.744-28.672-48.64-8.704-61.952l0-250.88 933.888 0zM506.88 584.704q-11.264 2.048-20.48 6.144-8.192 4.096-14.336 12.8t-6.144 24.064l0 54.272-60.416 0q-14.336 0-27.136 10.24t-12.8 29.696q-1.024 18.432 12.288 29.184t27.648 10.752l60.416 0 0 59.392q0 9.216 9.728 23.552t30.208 14.336 30.208-14.336 9.728-25.6l0-57.344 62.464 0q11.264 0 24.576-9.728t13.312-30.208q0-19.456-12.288-29.696t-27.648-10.24l-60.416 0 0-58.368q0-11.264-9.728-25.088t-29.184-13.824zM355.328 269.312q-2.048-21.504 2.048-44.032 3.072-19.456 11.776-41.472t28.16-42.496q15.36-16.384 39.936-28.16t52.224-15.36 57.344 2.048 56.32 23.04q26.624 18.432 39.424 43.008t17.92 48.128q6.144 26.624 5.12 55.296l-56.32 0q1.024-13.312-1.024-26.624-2.048-11.264-6.144-24.576t-12.288-24.576q-9.216-12.288-20.992-18.944t-23.04-10.24-21.504-4.608-14.336-1.024q-9.216-1.024-27.648 2.56t-41.984 22.016q-11.264 9.216-17.408 23.552t-8.192 28.672q-3.072 16.384-2.048 33.792l-57.344 0zM190.464 492.544l-148.48 0 0-22.528 0-23.552q0-13.312 1.024-27.648 0-14.336 5.632-32.256t19.456-33.28 35.328-26.112 54.272-10.752l76.8 0 128 0 151.552 0 149.504 0 122.88 0 69.632 0q25.6 0 47.104 8.192t37.888 22.528 25.6 33.28 9.216 40.448l0 70.656-150.528 0 0-32.768q0-11.264-10.24-22.016t-24.576-10.752-27.136 8.192-12.8 24.576l0 33.792-485.376 0 0-32.768q-1.024-13.312-12.288-23.552t-25.6-10.24-26.112 11.264-11.776 25.6l0 21.504q0 4.096 1.024 8.192z" p-id="6257" fill="#666666"></path></svg>