<?xml version="1.0" standalone="no"?><!DOCTYPE svg PUBLIC "-//W3C//DTD SVG 1.1//EN" "http://www.w3.org/Graphics/SVG/1.1/DTD/svg11.dtd"><svg t="1586008424604" class="icon" viewBox="0 0 1024 1024" version="1.1" xmlns="http://www.w3.org/2000/svg" p-id="6808" xmlns:xlink="http://www.w3.org/1999/xlink" width="24" height="24"><defs><style type="text/css"></style></defs><path d="M792 267c-5.5 0-10 4.5-10 10v500c0 33.1-26.9 60-60 60H332c-5.5 0-10 4.5-10 10s4.5 10 10 10h390c44.1 0 80-35.9 80-80V277c0-5.5-4.5-10-10-10z" fill="" p-id="6809"></path><path d="M752 747V227c0-5.5-4.5-10-10-10s-10 4.5-10 10v520c0 22.1-17.9 40-40 40H282c-5.5 0-10 4.5-10 10s4.5 10 10 10h410c33.1 0 60-26.9 60-60z" fill="" p-id="6810"></path><path d="M652 762c30.3 0 55-24.7 55-55V217c0-30.3-24.7-55-55-55H272c-30.3 0-55 24.7-55 55v490c0 30.3 24.7 55 55 55h380z m-405-55V217c0-13.8 11.2-25 25-25h380c13.8 0 25 11.2 25 25v490c0 13.8-11.2 25-25 25H272c-13.8 0-25-11.2-25-25z" fill="" p-id="6811"></path><path d="M300.6 712h92.8c2.8 0 5-2.2 5-5s-2.2-5-5-5h-92.8c-13.8 0-25-11.2-25-25v-70c0-2.8-2.2-5-5-5s-5 2.2-5 5v70c0 19.3 15.7 35 35 35zM530.6 222h92.8c13.8 0 25 11.2 25 25v100c0 2.8 2.2 5 5 5s5-2.2 5-5V247c0-19.3-15.7-35-35-35h-92.8c-2.8 0-5 2.2-5 5s2.2 5 5 5zM324 320h200c5.5 0 10-4.5 10-10s-4.5-10-10-10H324c-5.5 0-10 4.5-10 10s4.5 10 10 10zM324 415h220c5.5 0 10-4.5 10-10s-4.5-10-10-10H324c-5.5 0-10 4.5-10 10s4.5 10 10 10zM324 510h260c5.5 0 10-4.5 10-10s-4.5-10-10-10H324c-5.5 0-10 4.5-10 10s4.5 10 10 10zM324 605h300c5.5 0 10-4.5 10-10s-4.5-10-10-10H324c-5.5 0-10 4.5-10 10s4.5 10 10 10z" fill="" p-id="6812"></path></svg>